<?xml version="1.0" encoding="utf-8"?>
<!-- Generator: Adobe Illustrator 23.0.1, SVG Export Plug-In . SVG Version: 6.00 Build 0)  -->
<svg version="1.1" id="Layer_1" xmlns="http://www.w3.org/2000/svg" xmlns:xlink="http://www.w3.org/1999/xlink" x="0px" y="0px"
	 viewBox="0 0 1188.9248 498.6646" style="enable-background:new 0 0 1188.9248 498.6646;" xml:space="preserve">
<style type="text/css">
	.st0{fill:#7C99A1;}
	.st1{fill:#166572;}
	.st2{fill:#C5CED2;}
</style>
<g>
	<g>
		<path class="st0" d="M130.8065,347.8481c-46.2575,0-74.1521-32.0785-74.1521-68.5727c0-34.1718,25.5696-95.7695,90.6561-95.7695
			c12.7835,0,23.4763,2.7884,39.0508,9.9951l2.7884-6.975h13.0178l11.6223,60.9026l-17.2017,3.7205
			c-3.2545-17.6678-21.6174-46.2575-45.7915-46.2575c-31.149,0-49.512,41.8392-49.512,77.1722
			c0,27.8946,14.4107,44.3986,38.5874,44.3986c19.2924,0,40.6781-13.2495,54.1593-33.7057l16.0406,10.4612
			C191.243,332.5052,163.8144,347.8481,130.8065,347.8481z"/>
		<path class="st0" d="M333.0488,346.9186c-14.8768,0-24.8718-6.5089-28.1263-18.3656
			c-9.9951,11.8567-23.9424,18.3656-38.8192,18.3656c-26.2647,0-45.3254-20.6906-45.3254-49.512
			c0-39.5169,32.0759-73.4543,69.2678-73.4543c11.6249,0,23.2472,3.9522,31.6151,10.9245l1.6272-8.8339h33.008l-13.4839,74.8498
			c-0.6978,3.4862-1.3929,6.9724-1.3929,9.9951c0,6.2772,1.3929,10.9245,8.3678,10.9245c3.7179,0,7.204-1.6272,12.3201-5.5794
			l9.9951,12.3201C359.3161,340.6414,346.0666,346.9186,333.0488,346.9186z M296.3229,244.4085
			c-24.1741,0-36.2624,36.9576-36.2624,58.1115c0,13.0178,6.2772,21.1513,16.0406,21.1513c8.8313,0,16.7357-6.0428,23.9424-18.3629
			c5.8112-9.9951,9.2973-21.8491,16.0379-53.4642C307.9452,246.7308,302.1341,244.4085,296.3229,244.4085z"/>
		<path class="st0" d="M552.7272,346.9186c-18.1312,0-29.5219-8.8339-29.5219-23.0129c0-3.7205,0.2344-5.1134,1.1638-10.6928
			l7.6701-42.0736c1.3955-9.7634,1.3955-9.7634,1.3955-11.1589c0-5.5768-6.2772-9.9951-14.645-9.9951
			c-5.8112,0-9.9951,1.3955-16.038,5.3477l-16.2723,89.4923H449.751l13.0178-70.8976c0-0.6978,0.6978-4.1839,0.6978-8.5996
			c0-6.7406-1.8589-15.3428-12.5518-15.3428c-5.8112,0-11.8567,1.6272-17.2018,4.4183l-16.504,90.4217h-36.7259l13.713-74.6155
			c0.2317-2.325,0.466-4.4183,0.466-6.2772c0-7.2067-3.2545-10.6928-13.2495-10.6928h-2.791l3.4888-19.0607
			c17.4334-0.9295,26.9625-2.5567,44.6303-8.1361h12.0857l-1.6272,9.0656c8.8339-6.9723,21.8517-11.1562,33.9374-11.1562
			c11.1589,0,22.5495,4.6473,28.3606,11.1562c12.3174-6.9723,26.033-11.1562,37.887-11.1562
			c20.6879,0,34.6352,10.2268,34.6352,25.3353c-0.4634,2.325-0.4634,6.2772-0.9294,9.5316l-8.8313,48.3481
			c-0.466,2.325-0.6978,4.1839-0.6978,5.8112c0,5.116,3.4862,8.8339,8.8313,8.8339c3.2545,0,6.5089-0.9294,10.6928-3.2545
			l9.7634,13.2495C580.3874,341.3391,566.4427,346.9186,552.7272,346.9186z"/>
		<path class="st0" d="M651.0691,346.9186c-32.5419,0-54.8571-20.2245-54.8571-49.2803c0-40.2146,38.1214-73.686,83.9128-73.686
			c24.6401,0,40.9124,11.3906,40.9124,28.5897c0,27.8946-38.5874,40.6807-78.5677,40.6807c-0.9321,0-3.4888,0-6.0455-0.2343
			c-0.4634,3.9522-0.6978,6.975-0.6978,9.9951c0,13.0178,9.0656,21.62,23.0129,21.62c13.9473,0,27.6629-6.5089,43.7008-20.2245
			l12.5518,13.7156C703.3695,330.878,676.6387,346.9186,651.0691,346.9186z M673.616,242.0835
			c-16.9674,0-30.9147,20.4536-33.9374,34.8669h2.791c24.1741,0,44.1642-10.6928,44.1642-23.7107
			C686.6338,246.7308,681.2887,242.0835,673.616,242.0835z"/>
		<path class="st0" d="M827.0441,261.3759c-5.5768,0-9.2973-1.3955-14.8768-5.5794c-3.0201-2.325-4.4156-3.0201-6.7406-3.0201
			c-14.8768,0-21.3857,27.8919-24.1741,39.2825l-10.4611,52.7664h-36.7259l13.713-74.6155c0.2344-2.325,0.4661-4.4183,0.4661-6.2772
			c0-7.2067-3.2545-10.6928-13.2495-10.6928h-2.7884l3.4861-19.0607c17.4335-0.9295,26.9625-2.5567,44.6302-8.1361h12.0858
			l-3.2518,17.6678c10.4585-13.0178,23.0103-19.7584,36.0281-19.7584c13.2496,0,22.7812,7.6701,22.7812,18.1312
			C847.9663,253.008,838.9007,261.3759,827.0441,261.3759z"/>
		<path class="st0" d="M896.5593,346.9186c-34.6352,0-56.2526-18.3656-56.2526-47.4213c0-23.2446,15.1085-75.545,75.545-75.545
			c36.2625,0,56.4843,17.6652,56.4843,49.2776C972.3361,292.9883,957.2275,346.9186,896.5593,346.9186z M914.9222,244.4085
			c-28.824,0-34.4034,52.3004-34.4034,62.0638c0,12.5518,6.5089,19.9901,17.8995,19.9901c29.5218,0,34.8669-52.9981,34.8669-59.9731
			C933.2852,251.1491,927.7057,244.4085,914.9222,244.4085z"/>
		<path class="st0" d="M1095.5446,346.9186c-17.2018,0-29.0558-9.3-29.0558-22.7812c0-2.5567,0.2317-6.2772,1.1613-10.4612
			l9.0656-48.1164c0.2317-1.3955,0.2317-1.8589,0.2317-4.1839c0-7.2067-5.3451-11.3906-14.179-11.3906
			c-8.1361,0-16.504,3.0228-23.0129,8.1361l-15.8062,86.7039h-36.7258l13.713-74.6155c0.2317-2.325,0.4661-4.4183,0.4661-6.2772
			c0-7.2067-3.2545-10.6928-13.2496-10.6928h-2.791l3.4888-19.0607c17.4335-0.9295,26.9625-2.5567,44.6303-8.1361h12.0857
			l-2.0906,11.8566c9.995-8.3678,25.3352-13.9473,38.5847-13.9473c19.5267,0,33.474,10.4585,33.474,25.1035
			c0,3.2545-0.4661,5.8112-1.6272,12.5518l-7.2067,40.6807c-1.6272,9.529-2.0906,9.529-1.8589,11.6223
			c0,4.8817,3.2544,7.9018,8.5995,7.9018c3.0228,0,4.8817-0.6978,9.7634-3.7179l9.0656,13.0152
			C1119.0209,342.0369,1107.6302,346.9186,1095.5446,346.9186z"/>
	</g>
	<g>
		<path class="st1" d="M70.3028,428.4656v-4.987h23.1103v4.987H70.3028z"/>
		<path class="st1" d="M143.9888,447.5394v-56.1946h23.2709c2.425,0,4.6552,0.5135,6.688,1.543
			c2.0301,1.0295,3.7863,2.375,5.2635,4.0365s2.6383,3.5493,3.4809,5.6584c0.8452,2.1117,1.2665,4.2471,1.2665,6.4115
			c0,2.3224-0.395,4.5499-1.1849,6.688c-0.7925,2.1381-1.9011,4.0233-3.3255,5.6584c-1.4245,1.6378-3.1254,2.9569-5.1055,3.9575
			c-1.9774,1.0032-4.1813,1.5035-6.609,1.5035h-18.2049v20.7379H143.9888z M149.5288,421.8961h17.968
			c1.6351,0,3.1254-0.3581,4.4709-1.069c1.3455-0.7135,2.4935-1.6614,3.444-2.8489c0.9505-1.1875,1.6878-2.5594,2.217-4.1155
			c0.5266-1.5561,0.7899-3.1781,0.7899-4.8685c0-1.7404-0.3028-3.3887-0.9084-4.9475c-0.6082-1.5561-1.4245-2.9148-2.454-4.076
			c-1.0295-1.1585-2.2434-2.0696-3.6415-2.7305c-1.3981-0.6583-2.8621-0.9901-4.3919-0.9901h-17.494V421.8961z"/>
		<path class="st1" d="M245.4563,391.3448h4.671l23.3499,56.1946h-5.8585l-7.2804-17.5704h-25.2484l-7.204,17.5704h-5.9349
			L245.4563,391.3448z M259.0718,425.614l-11.3195-27.7787l-11.4749,27.7787H259.0718z"/>
		<path class="st1" d="M319.9348,447.5394v-56.1946h23.7449c2.4277,0,4.6579,0.5135,6.688,1.543s3.7863,2.375,5.2635,4.0365
			s2.6252,3.5493,3.444,5.6584c0.8163,2.1117,1.227,4.2471,1.227,6.4115c0,2.0564-0.3054,4.0233-0.911,5.8954
			c-0.6082,1.8747-1.4508,3.5625-2.533,5.066s-2.3882,2.77-3.918,3.7995c-1.5298,1.0295-3.2439,1.7299-5.145,2.0985l13.7735,21.6858
			h-6.2535l-13.2179-20.7379h-16.6225v20.7379H319.9348z M325.4748,421.8961h18.3629c1.6351,0,3.1281-0.3581,4.4736-1.069
			c1.3455-0.7135,2.4935-1.6746,3.4414-2.8885c0.9505-1.2138,1.6878-2.5857,2.217-4.1154c0.5266-1.5298,0.7925-3.1386,0.7925-4.829
			c0-1.6878-0.3054-3.3098-0.911-4.8685c-0.6082-1.5562-1.4245-2.9148-2.454-4.076c-1.0295-1.1585-2.2434-2.0827-3.6415-2.77
			c-1.3981-0.6846-2.8621-1.0295-4.3919-1.0295h-17.889V421.8961z"/>
		<path class="st1" d="M449.0282,396.2502h-20.0244v51.2893h-5.5399v-51.2893h-20.0244v-4.9054h45.5887V396.2502z"/>
		<path class="st1" d="M501.3444,401.6321v45.9073h-5.5399v-56.1946h4.2761l37.1998,46.7762v-46.6972h5.54v56.1157h-4.829
			L501.3444,401.6321z"/>
		<path class="st1" d="M633.0498,442.6314v4.908h-37.7554v-56.1946h37.0418v4.9054h-31.5018v20.264h27.4654v4.6684h-27.4654v21.4489
			H633.0498z"/>
		<path class="st1" d="M681.8824,447.5394v-56.1946h23.7449c2.4277,0,4.6579,0.5135,6.688,1.543s3.7863,2.375,5.2634,4.0365
			c1.4772,1.6615,2.6252,3.5493,3.4441,5.6584c0.8162,2.1117,1.227,4.2471,1.227,6.4115c0,2.0564-0.3054,4.0233-0.9111,5.8954
			c-0.6082,1.8747-1.4508,3.5625-2.533,5.066c-1.0822,1.5035-2.3882,2.77-3.918,3.7995c-1.5298,1.0295-3.2439,1.7299-5.145,2.0985
			l13.7735,21.6858h-6.2535l-13.218-20.7379h-16.6225v20.7379H681.8824z M687.4224,421.8961h18.363
			c1.6351,0,3.1281-0.3581,4.4735-1.069c1.3455-0.7135,2.4935-1.6746,3.4414-2.8885c0.9506-1.2138,1.6878-2.5857,2.217-4.1154
			c0.5266-1.5298,0.7925-3.1386,0.7925-4.829c0-1.6878-0.3054-3.3098-0.911-4.8685c-0.6082-1.5562-1.4245-2.9148-2.454-4.076
			c-1.0295-1.1585-2.2433-2.0827-3.6415-2.77c-1.3981-0.6846-2.8621-1.0295-4.392-1.0295h-17.889V421.8961z"/>
		<path class="st1" d="M804.8013,401.8717c-1.5825-1.7931-3.6942-3.2466-6.3325-4.3551c-2.6383-1.1085-5.6453-1.6615-9.0234-1.6615
			c-4.9581,0-8.5732,0.9374-10.843,2.8095c-2.2697,1.8747-3.4019,4.4209-3.4019,7.6385c0,1.6904,0.3028,3.0754,0.9084,4.155
			c0.6082,1.0822,1.5456,2.0196,2.8121,2.8095c1.2665,0.7925,2.8885,1.4771,4.8659,2.0591c1.98,0.5793,4.3129,1.1612,7.0065,1.7404
			c3.007,0.6346,5.7111,1.3455,8.1125,2.138c2.3987,0.7899,4.4446,1.7799,6.1324,2.9674c1.6877,1.1875,2.9806,2.6252,3.8785,4.313
			c0.8979,1.6904,1.3455,3.7995,1.3455,6.3325c0,2.5857-0.5029,4.829-1.5035,6.7275c-1.0032,1.8984-2.4013,3.4835-4.1944,4.75
			c-1.7958,1.2665-3.9312,2.2039-6.4115,2.8094c-2.4803,0.6056-5.1977,0.9084-8.152,0.9084c-8.7075,0-16.2249-2.7173-22.5574-8.1519
			l2.77-4.5104c1.0006,1.0558,2.2039,2.0564,3.6021,3.0069c1.3955,0.9505,2.9543,1.7799,4.6684,2.4935
			c1.7141,0.7109,3.5494,1.2665,5.5005,1.6615c1.9537,0.3976,4.0101,0.5951,6.1745,0.5951c4.4841,0,7.9808-0.8057,10.4874-2.4145
			s3.76-4.0497,3.76-7.3225c0-1.7404-0.3555-3.2044-1.069-4.3919s-1.7799-2.217-3.2044-3.0859
			c-1.4271-0.8716-3.1939-1.6246-5.303-2.2565c-2.1117-0.6319-4.5657-1.2665-7.362-1.8984c-2.9569-0.6872-5.54-1.3981-7.757-2.138
			c-2.217-0.7372-4.0891-1.6615-5.6189-2.77c-1.5325-1.1085-2.6779-2.4408-3.444-3.9969c-0.7636-1.5562-1.148-3.4704-1.148-5.7374
			c0-2.5857,0.4897-4.8949,1.4666-6.9276c0.9742-2.0301,2.3592-3.7205,4.1549-5.066c1.7932-1.3455,3.9022-2.3724,6.3299-3.0859
			c2.4277-0.7109,5.1187-1.069,8.0756-1.069c3.7442,0,7.0829,0.5687,10.0109,1.7036c2.928,1.1348,5.5795,2.7305,7.9545,4.7869
			L804.8013,401.8717z"/>
		<path class="st1" d="M902.7062,391.3448v56.1946h-5.461v-26.2779h-33.3239v26.2779h-5.54v-56.1946h5.54v25.0088h33.3239v-25.0088
			H902.7062z"/>
		<path class="st1" d="M955.1804,447.5394v-56.1946h5.54v56.1946H955.1804z"/>
		<path class="st1" d="M1013.1945,447.5394v-56.1946h23.271c2.4249,0,4.6552,0.5135,6.6879,1.543
			c2.0302,1.0295,3.7864,2.375,5.2635,4.0365c1.4771,1.6615,2.6383,3.5493,3.4808,5.6584c0.8452,2.1117,1.2665,4.2471,1.2665,6.4115
			c0,2.3224-0.3949,4.5499-1.1848,6.688c-0.7926,2.1381-1.9011,4.0233-3.3256,5.6584c-1.4244,1.6378-3.1255,2.9569-5.1055,3.9575
			c-1.9774,1.0032-4.1813,1.5035-6.609,1.5035h-18.205v20.7379H1013.1945z M1018.7344,421.8961h17.968
			c1.6351,0,3.1254-0.3581,4.4709-1.069c1.3455-0.7135,2.4934-1.6614,3.444-2.8489c0.9506-1.1875,1.6879-2.5594,2.217-4.1155
			c0.5266-1.5561,0.7899-3.1781,0.7899-4.8685c0-1.7404-0.3027-3.3887-0.9084-4.9475c-0.6082-1.5561-1.4244-2.9148-2.454-4.076
			c-1.0295-1.1585-2.2433-2.0696-3.6415-2.7305c-1.3982-0.6583-2.8622-0.9901-4.392-0.9901h-17.494V421.8961z"/>
		<path class="st1" d="M1097.3337,428.4656v-4.987h23.1104v4.987H1097.3337z"/>
	</g>
	<g>
		<rect x="484.4634" y="117.5905" class="st2" width="75.68" height="66.8384"/>
		<rect x="560.1434" y="88.318" class="st0" width="74.0693" height="96.1108"/>
		<rect x="634.2126" y="50.6512" class="st1" width="75.5539" height="133.7776"/>
	</g>
</g>
</svg>
